<svg xmlns="http://www.w3.org/2000/svg" viewBox="0 0 1200 1200"><style>:root{--bg-gradient-from:#F5F5F5;--bg-gradient-to:#E0E0E0;--dot-color:#0009;--triangle-fill:#d5d5d6;--triangle-stroke:#cccccd;--circle-outer:#dbdbda;--circle-inner:#FAFAFB;--circle-stroke:#E5E5E6;--logo-stroke:#BBBBBC;--logo-fill:#AAAAAB;--shadow-color:rgba(0,0,1,0.1)}@media (prefers-color-scheme:dark){:root{--bg-gradient-from:#2A2A2B;--bg-gradient-to:#1A1A1B;--dot-color:#fffa;--triangle-fill:#1A1A1B;--triangle-stroke:#333334;--circle-outer:#2C2C2D;--circle-inner:#242425;--circle-stroke:#3A3A3B;--logo-stroke:#BBBBBC;--logo-fill:#AAAAAB;--shadow-color:rgba(0,0,1,0.3)}}</style><defs><linearGradient id="prefix__prefix__a" x1="0%" y1="0%" x2="100%" y2="100%"><stop offset="0%" stop-color="var(--bg-gradient-from)"/><stop offset="100%" stop-color="var(--bg-gradient-to)"/></linearGradient><clipPath id="prefix__prefix__d"><rect width="1200" height="1200" rx="10"/></clipPath><pattern id="prefix__prefix__b" width="20" height="20" patternUnits="userSpaceOnUse"><circle cx="2" cy="2" r="1" fill="var(--dot-color)"/></pattern><filter id="prefix__prefix__c" x="-20%" y="-20%" width="140%" height="140%"/></defs><rect width="1200" height="1200" fill="url(#prefix__prefix__a)" rx="10"/><rect width="1200" height="1200" fill="url(#prefix__prefix__b)" rx="10" opacity=".3"/><g clip-path="url(#prefix__prefix__d)"><path d="M600 600L0 300V0h300zm0 0l600-300V0H900zm0 0L0 900v300h300zm0 0l600 300v300H900z" fill="var(--triangle-fill)" stroke="var(--triangle-stroke)" stroke-width="2" opacity=".5"/></g><circle cx="600" cy="600" r="200" fill="var(--circle-outer)" filter="url(#prefix__prefix__c)"/><circle cx="600" cy="600" r="180" fill="var(--circle-inner)" stroke="var(--circle-stroke)" stroke-width="2"/><g stroke="var(--logo-stroke)" stroke-width="16" stroke-linecap="round"><path d="M654.28 504.548l57.392 98.311-56.443 97.763-113.836-.548L484 601.764 540.444 504l113.836.548z" fill="none" stroke-linejoin="round"/><path d="M484 601.763l113.836.548 57.393 98.311-57.392-98.312 56.443-97.761-56.444 97.763L484 601.763z" fill="var(--logo-fill)" stroke-miterlimit=".1"/></g><path d="M597.836 549.73c29.014 0 52.582 23.568 52.582 52.581s-23.568 52.582-52.582 52.582-52.582-23.568-52.582-52.582 23.568-52.581 52.582-52.581z" fill="var(--logo-fill)"/></svg>

